<?xml version="1.0" standalone="no"?>
<!DOCTYPE svg PUBLIC "-//W3C//DTD SVG 20010904//EN"
 "http://www.w3.org/TR/2001/REC-SVG-20010904/DTD/svg10.dtd">
<svg version="1.0" xmlns="http://www.w3.org/2000/svg"
 width="1600.000000pt" height="1600.000000pt" viewBox="0 0 1600.000000 1600.000000"
 preserveAspectRatio="xMidYMid meet">
<metadata>
Created by potrace 1.16, written by Peter Selinger 2001-2019
</metadata>
<g transform="translate(0.000000,1600.000000) scale(0.100000,-0.100000)"
fill="#000000" stroke="none">
<path d="M10530 15023 c-24 -43 -58 -105 -76 -138 -17 -33 -220 -382 -451
-775 -1085 -1848 -2443 -4161 -2698 -4595 -155 -264 -393 -671 -531 -905 -137
-233 -248 -429 -246 -435 8 -28 256 -535 261 -535 3 1 786 1330 1740 2955
l1735 2955 55 -53 c107 -101 239 -174 368 -203 115 -25 302 -16 411 21 233 79
419 267 489 495 14 47 27 86 28 88 1 2 517 -299 1146 -669 629 -369 1148 -674
1152 -676 5 -3 -7 -18 -26 -34 -85 -70 -180 -229 -219 -366 -29 -103 -30 -276
-4 -378 70 -268 270 -475 534 -555 l72 -22 -19 -32 c-11 -17 -805 -1370 -1766
-3006 -961 -1636 -1785 -3039 -1832 -3118 l-84 -143 -68 63 c-152 140 -324
208 -526 208 -343 0 -635 -218 -735 -548 -16 -52 -26 -72 -36 -68 -7 3 -124
71 -260 151 -135 80 -249 145 -253 145 -3 -1 -83 -96 -178 -213 -94 -117 -210
-257 -256 -312 -85 -100 -283 -299 -387 -388 l-55 -48 62 -57 c34 -31 233
-221 443 -422 210 -201 385 -366 389 -368 7 -2 342 344 672 693 l75 80 395
-232 c217 -127 397 -228 401 -225 3 4 449 761 990 1682 811 1381 993 1684
1035 1725 43 43 3234 3384 3299 3455 l24 26 -376 359 c-207 198 -395 376 -418
395 l-43 36 282 479 c156 264 287 485 292 490 16 17 136 226 132 229 -11 11
-4866 2859 -4879 2863 -10 2 -30 -22 -60 -74z"/>
<path d="M11851 12384 c-182 -49 -332 -207 -370 -392 -65 -312 180 -612 499
-612 230 0 436 158 495 381 17 63 19 185 4 249 -42 181 -205 341 -387 379 -72
15 -175 13 -241 -5z"/>
<path d="M10155 11004 c-728 -111 -1303 -632 -1485 -1345 -69 -268 -67 -613 5
-886 40 -150 119 -349 172 -430 14 -21 22 -15 328 232 329 265 389 307 503
354 135 56 192 66 372 65 150 0 173 -3 254 -28 306 -93 537 -308 641 -596 98
-273 64 -598 -86 -831 -22 -34 -38 -63 -36 -65 2 -2 43 8 92 22 569 165 1021
600 1209 1164 97 292 116 615 55 920 -150 745 -749 1312 -1504 1425 -124 19
-396 18 -520 -1z"/>
</g>
</svg>
