<?xml version="1.0" standalone="no"?>
<!DOCTYPE svg PUBLIC "-//W3C//DTD SVG 20010904//EN"
 "http://www.w3.org/TR/2001/REC-SVG-20010904/DTD/svg10.dtd">
<svg version="1.0" xmlns="http://www.w3.org/2000/svg"
 width="300.000000pt" height="89.000000pt" viewBox="0 0 300.000000 89.000000"
 preserveAspectRatio="xMidYMid meet">
<metadata>
Created by potrace 1.16, written by Peter Selinger 2001-2019
</metadata>
<g transform="translate(0.000000,89.000000) scale(0.100000,-0.100000)"
fill="#000000" stroke="none">
<path d="M0 714 l0 -176 124 3 c111 4 128 7 155 27 l31 23 0 -26 c0 -24 2 -25
70 -25 l70 0 0 65 0 65 55 0 55 0 0 -65 0 -66 98 3 c90 3 98 5 107 26 8 19 17
22 66 22 52 0 57 -2 63 -25 6 -25 8 -25 106 -25 l100 0 0 54 c0 87 19 89 75
11 l47 -66 91 3 c84 3 93 5 102 26 8 19 17 22 66 22 53 0 57 -2 63 -26 l7 -27
97 6 c53 4 163 7 245 7 140 0 147 1 147 20 0 18 7 20 59 20 51 0 61 -3 66 -20
6 -18 15 -20 106 -20 l99 0 0 72 0 71 56 -71 55 -72 55 0 54 0 0 170 0 170
-55 0 -54 0 -3 -76 -3 -75 -55 75 -54 76 -63 0 -62 0 -3 -72 -3 -71 -30 71
-30 72 -71 0 -71 0 -35 -82 c-19 -45 -41 -84 -48 -86 -11 -4 -10 1 3 21 35 54
12 110 -56 136 -16 6 -87 11 -158 11 l-129 0 0 -67 -1 -68 -28 65 -28 65 -70
3 c-51 2 -72 -1 -76 -10 -33 -84 -91 -224 -94 -227 -3 -5 -15 10 -59 71 l-25
36 43 40 c24 21 57 51 73 65 l30 26 -85 1 -85 0 -52 -51 -53 -51 0 51 0 51
-70 0 -70 0 0 -72 -1 -73 -30 73 -31 72 -67 0 -68 0 -29 -72 -29 -73 -3 73 -3
72 -69 0 -70 0 0 -55 0 -55 -55 0 -55 0 0 55 0 55 -70 0 c-56 0 -70 -3 -70
-15 0 -14 -3 -14 -30 0 -21 11 -62 15 -155 15 l-125 0 0 -176z m1883 155 c73
-20 98 -73 56 -118 l-21 -22 26 -24 c35 -32 35 -78 0 -110 -15 -14 -23 -25
-17 -25 5 0 20 11 33 25 19 20 22 31 17 69 -5 36 -1 57 27 121 18 42 38 81 43
86 6 6 34 9 64 7 l53 -3 68 -155 c37 -85 68 -156 68 -157 0 -2 -26 -3 -59 -3
-50 0 -59 3 -64 20 -4 18 -14 20 -75 20 -60 0 -70 -3 -75 -19 -4 -17 -17 -19
-174 -20 l-169 -1 -32 78 c-27 63 -32 90 -32 153 0 42 3 79 7 82 10 11 214 8
256 -4z m538 -78 l64 -90 5 86 5 86 40 0 40 0 3 -156 3 -157 -45 0 c-44 0 -46
1 -107 80 -34 44 -65 80 -70 80 -5 0 -9 -36 -9 -80 0 -71 -2 -80 -19 -80 -13
0 -27 20 -50 71 -27 63 -31 83 -31 160 l0 89 53 0 53 0 65 -89z"/>
<path d="M2600 720 l0 -170 59 0 60 0 3 52 c2 28 8 53 13 55 6 2 28 -22 50
-52 l40 -55 88 0 c49 0 87 3 85 8 -1 4 -34 47 -73 96 -38 49 -70 92 -70 96 0
4 29 34 65 66 36 31 67 61 68 66 2 4 -32 8 -75 8 l-79 0 -57 -51 -57 -51 0 51
0 51 -60 0 -60 0 0 -170z m110 98 l0 -61 64 61 64 62 61 0 c34 0 61 -3 60 -7
0 -5 -29 -33 -64 -63 -56 -47 -63 -57 -52 -72 7 -10 40 -53 75 -98 l63 -80
-73 0 -73 0 -40 56 c-22 31 -43 58 -48 61 -19 12 -37 -21 -37 -68 l0 -49 -50
0 -50 0 0 160 0 160 50 0 50 0 0 -62z"/>
<path d="M0 500 c0 -7 507 -10 1500 -10 993 0 1500 3 1500 10 0 7 -507 10
-1500 10 -993 0 -1500 -3 -1500 -10z"/>
<path d="M2870 360 l0 -80 39 0 c57 0 86 27 86 80 0 53 -29 80 -86 80 l-39 0
0 -80z"/>
</g>
</svg>
