<?xml version="1.0" standalone="no"?>
<!DOCTYPE svg PUBLIC "-//W3C//DTD SVG 20010904//EN"
 "http://www.w3.org/TR/2001/REC-SVG-20010904/DTD/svg10.dtd">
<svg version="1.0" xmlns="http://www.w3.org/2000/svg"
 width="300.000000pt" height="201.000000pt" viewBox="0 0 300.000000 201.000000"
 preserveAspectRatio="xMidYMid meet">
<metadata>
Created by potrace 1.16, written by Peter Selinger 2001-2019
</metadata>
<g transform="translate(0.000000,201.000000) scale(0.100000,-0.100000)"
fill="#000000" stroke="none">
<path d="M0 1005 l0 -1005 1500 0 1500 0 0 1005 0 1005 -1500 0 -1500 0 0
-1005z m2310 868 c-1 -22 -279 -858 -287 -860 -4 -1 -51 54 -103 122 l-95 123
-35 -67 -34 -66 -14 99 -13 100 163 164 c115 117 148 155 113 131 -27 -20
-125 -88 -217 -153 l-168 -118 -122 65 c-68 35 -122 68 -121 73 1 7 902 389
926 393 4 0 7 -2 7 -6z m-1632 -579 c26 -18 30 -68 7 -101 -13 -18 -12 -22 5
-38 29 -26 25 -35 -17 -35 -26 0 -45 8 -65 27 l-28 27 0 -27 c0 -22 -5 -27
-25 -27 -25 0 -25 0 -25 95 l0 95 63 0 c40 0 70 -5 85 -16z m181 -10 c17 -14
31 -33 31 -42 1 -11 6 -8 16 10 19 37 63 58 119 58 43 0 45 -1 45 -29 0 -29
-2 -30 -52 -33 -47 -3 -53 -6 -56 -27 -5 -30 12 -41 66 -41 40 0 42 -1 42 -30
0 -29 -1 -30 -47 -30 -57 1 -87 16 -114 56 -13 19 -19 24 -19 12 0 -9 -14 -28
-32 -43 -90 -76 -202 53 -119 136 37 37 79 38 120 3z m281 5 l0 -20 26 20 c25
20 84 29 84 14 0 -4 -16 -24 -37 -45 l-36 -37 36 -45 c21 -24 37 -46 37 -48 0
-13 -65 3 -84 21 l-24 23 -4 -24 c-2 -15 -10 -23 -23 -23 -18 0 -20 8 -23 93
l-3 92 26 0 c19 0 25 -5 25 -21z m260 -9 c0 -29 -1 -30 -52 -32 l-53 -2 53 -3
c48 -4 52 -6 52 -29 0 -22 -4 -24 -52 -26 l-53 -2 53 -3 c50 -4 52 -5 52 -34
0 -28 -2 -29 -46 -29 -73 0 -123 38 -124 93 0 61 44 96 123 97 46 0 47 -1 47
-30z m190 0 c0 -27 -3 -30 -30 -30 -29 0 -29 -1 -32 -62 -3 -59 -4 -63 -28
-63 -24 0 -25 4 -28 62 -3 59 -4 62 -30 65 -21 2 -28 9 -30 31 l-3 27 90 0 91
0 0 -30z m884 8 c25 -8 59 -31 87 -58 43 -43 58 -72 73 -142 6 -24 11 -28 41
-28 l35 0 0 -70 0 -70 -235 0 -235 0 0 -120 0 -120 144 0 c158 0 176 3 176 31
0 17 -8 19 -95 19 -64 0 -95 4 -95 11 0 6 12 38 26 70 l27 59 87 0 c74 0 92
-3 121 -23 39 -26 79 -97 79 -142 0 -54 -40 -117 -90 -143 -42 -21 -55 -22
-282 -22 l-238 0 0 260 0 260 195 0 c220 0 225 2 160 67 -33 33 -39 35 -81 30
-28 -3 -54 -13 -69 -27 -21 -20 -27 -21 -42 -9 -42 31 -83 74 -83 86 0 17 62
65 102 80 44 15 141 16 192 1z m-1574 -488 l0 -260 -59 0 c-51 0 -61 3 -75 25
-36 55 -127 73 -186 38 -16 -9 -30 -20 -30 -23 0 -3 -7 -13 -15 -24 -13 -17
-16 -17 -62 -2 -109 36 -173 128 -173 246 1 107 49 188 142 234 51 25 57 26
255 26 l203 0 0 -260z m320 254 c0 -4 -14 -22 -31 -42 -18 -20 -41 -56 -52
-81 -40 -89 -22 -254 35 -326 l21 -27 -49 -43 c-27 -24 -52 -44 -56 -45 -13 0
-57 65 -85 125 -49 109 -43 285 13 398 l24 47 90 0 c50 0 90 -3 90 -6z m637
-7 c145 -54 218 -218 155 -347 -22 -46 -66 -100 -81 -100 -5 0 -28 22 -51 50
l-42 50 26 31 c54 63 14 178 -61 179 l-23 0 0 -185 0 -185 -193 0 c-147 0
-204 4 -238 15 -105 36 -169 129 -169 245 1 107 49 188 142 234 51 26 54 26
277 25 147 0 237 -5 258 -12z m-1141 -466 c85 -52 58 -188 -42 -207 -73 -14
-134 38 -134 113 0 38 5 50 34 79 40 40 92 46 142 15z m1888 -77 c29 -11 16
-23 -19 -17 -23 4 -35 2 -35 -6 0 -7 23 -11 64 -11 51 0 65 -3 70 -17 4 -11 1
-22 -8 -29 -13 -9 -13 -12 1 -27 9 -9 13 -20 9 -24 -4 -5 -17 3 -29 17 -23 26
-57 29 -57 4 0 -19 -16 -18 -24 1 -7 19 -36 20 -36 1 0 -22 -31 -28 -51 -10
-10 9 -20 28 -22 43 -3 20 -4 17 -6 -11 -1 -48 -21 -50 -21 -3 0 19 -4 35 -9
35 -5 0 -8 -14 -7 -31 0 -20 -5 -34 -13 -37 -10 -3 -12 0 -8 12 4 9 2 26 -3
38 -8 20 -9 18 -9 -14 -1 -21 -3 -38 -5 -38 -3 0 -21 10 -42 22 -32 19 -34 23
-20 33 20 15 21 26 1 19 -8 -4 -15 -1 -15 6 0 8 30 11 101 9 92 -1 102 0 115
20 15 21 47 27 78 15z m-438 -19 c4 -11 21 -15 55 -15 l49 0 0 -46 c0 -32 -4
-44 -12 -41 -7 2 -13 10 -13 17 0 7 -13 14 -28 16 -24 2 -27 0 -16 -12 18 -22
2 -30 -21 -9 -11 10 -23 15 -27 11 -4 -4 -1 -11 7 -16 8 -5 12 -12 8 -15 -3
-4 -17 1 -31 10 -20 13 -27 14 -34 3 -5 -9 -10 0 -14 27 l-6 40 -2 -38 c0 -21
-4 -37 -8 -35 -5 3 -23 11 -40 18 -37 16 -41 27 -15 46 15 12 15 12 -5 7 -18
-4 -23 -12 -23 -39 0 -46 -20 -43 -22 4 l-1 37 -4 -37 c-5 -43 -12 -47 -31
-18 -7 11 -18 20 -25 20 -8 0 -7 -3 3 -10 18 -11 7 -25 -15 -17 -17 7 -21 37
-5 37 6 0 10 5 10 10 0 6 -9 10 -19 10 -25 0 -37 -31 -17 -46 20 -14 20 -24 1
-24 -8 0 -19 9 -25 21 -9 16 -8 26 5 45 15 23 19 24 139 24 101 0 125 3 130
15 3 8 15 15 26 15 11 0 23 -7 26 -15z m-1131 -52 c0 -22 7 -44 15 -51 13 -12
11 -13 -10 -8 -14 3 -40 6 -57 6 -31 0 -33 2 -35 38 l-1 37 -4 -37 c-2 -21 -8
-38 -14 -38 -5 0 -10 17 -10 38 l-2 37 -6 -35 c-6 -34 -7 -35 -51 -35 l-45 0
-1 43 -2 42 112 0 112 0 -1 -37z"/>
<path d="M523 913 c-30 -6 -71 -46 -79 -77 -11 -44 4 -93 37 -120 29 -25 36
-26 155 -26 l125 0 -3 113 -3 112 -105 1 c-58 1 -115 0 -127 -3z"/>
<path d="M1389 904 c-76 -31 -92 -131 -29 -186 30 -27 33 -28 155 -28 l125 0
0 115 0 115 -107 -1 c-72 0 -120 -5 -144 -15z"/>
</g>
</svg>
