<?xml version="1.0" standalone="no"?>
<!DOCTYPE svg PUBLIC "-//W3C//DTD SVG 20010904//EN"
 "http://www.w3.org/TR/2001/REC-SVG-20010904/DTD/svg10.dtd">
<svg version="1.0" xmlns="http://www.w3.org/2000/svg"
 width="325.000000pt" height="170.000000pt" viewBox="0 0 325.000000 170.000000"
 preserveAspectRatio="xMidYMid meet">
<metadata>
Created by potrace 1.16, written by Peter Selinger 2001-2019
</metadata>
<g transform="translate(0.000000,170.000000) scale(0.100000,-0.100000)"
fill="#000000" stroke="none">
<path d="M1190 1528 c-79 -41 -85 -56 -88 -241 l-3 -162 71 -38 c68 -37 71
-37 106 -22 47 19 44 20 44 -19 0 -32 5 -37 68 -71 70 -39 66 -39 135 -10 14
6 17 1 17 -32 0 -38 2 -39 66 -71 37 -18 68 -31 71 -29 8 9 3 524 -7 556 -15
54 -59 121 -93 142 -57 34 -136 16 -171 -39 -6 -11 -13 -9 -35 11 -57 54 -110
61 -181 25z"/>
<path d="M790 640 c0 -82 -8 -107 -25 -80 -10 16 -78 12 -103 -6 -31 -22 -52
-66 -52 -113 0 -79 86 -139 151 -107 16 8 29 10 29 5 0 -5 16 -9 35 -9 l35 0
0 200 0 200 -35 0 -35 0 0 -90z"/>
<path d="M890 530 l0 -200 40 0 40 0 0 200 0 200 -40 0 -40 0 0 -200z"/>
<path d="M1700 640 c0 -87 -1 -90 -19 -80 -47 25 -120 0 -146 -50 -8 -16 -15
-47 -15 -69 0 -77 86 -139 150 -108 16 9 30 11 30 6 0 -5 16 -9 35 -9 l35 0 0
200 0 200 -35 0 -35 0 0 -90z"/>
<path d="M135 561 c-3 -2 -5 -55 -5 -118 l0 -113 35 0 35 0 0 74 c0 54 4 79
16 90 36 37 54 9 54 -86 l0 -78 35 0 35 0 0 63 c0 97 15 126 55 111 12 -5 15
-25 15 -90 l0 -84 35 0 35 0 0 100 c0 87 -3 103 -20 120 -24 24 -77 26 -108 4
-21 -15 -25 -15 -41 0 -19 18 -68 21 -91 7 -8 -6 -19 -7 -24 -4 -12 8 -55 11
-61 4z"/>
<path d="M521 562 c-7 -2 -11 -44 -11 -118 l0 -114 40 0 41 0 -3 117 -3 116
-27 1 c-14 1 -31 0 -37 -2z"/>
<path d="M1042 554 c-31 -22 -52 -66 -52 -113 0 -79 86 -139 151 -107 16 8 29
10 29 5 0 -5 16 -9 35 -9 l36 0 -3 117 -3 117 -25 0 c-14 0 -31 -4 -39 -8 -7
-5 -18 -3 -24 3 -16 16 -79 13 -105 -5z"/>
<path d="M1280 562 c-6 -2 -10 -49 -10 -118 l0 -114 40 0 40 0 0 79 c0 85 12
108 50 96 18 -6 20 -14 20 -91 l0 -84 41 0 41 0 -4 101 c-3 93 -5 102 -28 119
-28 22 -90 26 -108 8 -9 -9 -12 -9 -12 0 0 10 -43 13 -70 4z"/>
</g>
</svg>
