<?xml version="1.0" standalone="no"?>
<!DOCTYPE svg PUBLIC "-//W3C//DTD SVG 20010904//EN"
 "http://www.w3.org/TR/2001/REC-SVG-20010904/DTD/svg10.dtd">
<svg version="1.0" xmlns="http://www.w3.org/2000/svg"
 width="3000.000000pt" height="2000.000000pt" viewBox="0 0 3000.000000 2000.000000"
 preserveAspectRatio="xMidYMid meet">
<metadata>
Created by potrace 1.16, written by Peter Selinger 2001-2019
</metadata>
<g transform="translate(0.000000,2000.000000) scale(0.100000,-0.100000)"
fill="#000000" stroke="none">
<path d="M10322 14884 c-494 -54 -962 -200 -1394 -435 -181 -99 -358 -213
-358 -231 0 -5 106 -202 235 -439 130 -238 234 -432 233 -434 -2 -1 -43 -17
-93 -35 -188 -70 -394 -170 -590 -288 -884 -532 -1537 -1472 -1720 -2475 -14
-76 -25 -143 -25 -148 0 -24 22 8 74 106 270 511 776 1078 1285 1439 515 365
1056 598 1697 731 461 95 1137 110 1558 34 32 -6 60 -8 62 -6 5 4 -54 2159
-58 2162 -2 1 -77 10 -168 19 -199 19 -560 20 -738 0z"/>
<path d="M5975 13816 c-879 -460 -1596 -1195 -2035 -2088 -268 -544 -420
-1103 -471 -1733 -15 -187 -6 -687 16 -865 117 -953 472 -1776 1084 -2510 128
-154 407 -432 561 -560 478 -397 966 -669 1540 -860 537 -179 995 -247 1590
-237 426 7 693 42 1085 142 696 177 1307 492 1875 964 148 123 448 423 571
571 236 283 452 605 580 860 324 650 493 1324 516 2060 8 276 -23 683 -76 989
-21 119 -27 135 -41 111 -5 -8 -45 -70 -89 -138 l-80 -123 -95 85 c-52 47 -98
86 -101 86 -8 0 -3 -72 6 -85 11 -17 17 -421 8 -620 -13 -300 -57 -568 -144
-870 -104 -363 -223 -632 -433 -980 -405 -671 -969 -1196 -1677 -1561 -455
-235 -895 -367 -1433 -431 -210 -24 -701 -24 -902 0 -944 117 -1776 510 -2438
1151 -618 598 -1038 1391 -1186 2236 -48 276 -60 415 -60 720 0 305 12 444 60
720 164 937 665 1809 1393 2424 84 71 91 76 75 44 -11 -20 -41 -55 -69 -78
-104 -88 -275 -252 -316 -302 l-43 -53 40 38 c22 20 44 34 49 30 4 -5 5 -3 2
4 -4 6 11 25 35 45 24 18 51 43 62 56 10 13 78 75 150 139 92 81 139 130 160
166 45 82 171 271 258 389 44 60 79 111 76 113 -2 2 -48 -20 -103 -49z"/>
<path d="M19590 11219 c-415 -47 -793 -266 -997 -577 -111 -169 -149 -312
-140 -531 8 -226 68 -374 206 -512 90 -90 183 -147 306 -188 149 -50 257 -64
435 -58 174 6 233 18 355 75 61 28 90 37 128 35 154 -4 267 -139 255 -304 -10
-143 -171 -272 -418 -335 -112 -29 -353 -27 -432 3 -103 38 -141 75 -253 241
-57 84 -106 149 -109 143 -4 -5 -38 -99 -78 -208 -67 -185 -71 -204 -76 -298
-4 -109 9 -182 53 -281 74 -167 266 -363 445 -454 314 -160 786 -123 1099 84
129 86 289 275 373 440 88 175 123 331 122 556 0 143 -2 162 -28 240 -78 236
-271 500 -437 598 -111 65 -159 77 -314 77 -139 0 -141 0 -261 -43 -170 -60
-212 -56 -287 27 -68 75 -93 158 -77 255 27 168 169 306 366 356 106 27 272
27 380 0 105 -26 259 -104 364 -183 157 -119 382 -370 524 -586 l66 -100 0
-1589 0 -1589 313 -188 c171 -103 326 -189 342 -192 42 -6 97 25 117 67 17 33
18 158 18 2188 l0 2152 455 0 455 0 2 -1387 3 -1386 355 -148 c378 -158 407
-166 467 -129 40 24 50 43 58 111 33 271 123 585 239 824 173 358 396 615 716
826 l105 69 7 -270 c8 -301 19 -499 58 -1060 27 -373 89 -705 175 -935 81
-215 168 -360 295 -486 99 -99 205 -159 325 -184 236 -49 464 38 540 206 63
141 38 374 -56 520 -32 50 -32 50 -73 44 -23 -3 -77 -15 -121 -26 -107 -27
-173 -20 -235 25 -148 109 -230 468 -216 940 19 584 99 1009 246 1295 76 148
139 211 270 271 26 12 60 72 60 106 0 74 -89 221 -197 326 -125 121 -313 231
-513 298 -129 44 -228 50 -336 21 -165 -46 -406 -165 -612 -303 -190 -127
-557 -419 -721 -573 l-71 -67 0 536 0 536 1398 1 c1055 0 1405 3 1432 12 19 7
44 27 57 46 22 33 23 42 23 247 l0 214 -29 32 -29 33 -2607 3 c-2353 2 -2609
1 -2636 -14 -55 -28 -59 -54 -59 -365 l0 -282 -102 99 c-399 386 -736 593
-1057 649 -91 16 -306 18 -431 4z"/>
<path d="M14235 11097 c-43 -43 -48 -79 -43 -289 4 -173 8 -192 55 -224 27
-18 76 -19 1556 -22 l1527 -2 0 -827 0 -828 -27 40 c-14 22 -78 104 -141 183
-274 343 -651 582 -1019 647 -113 20 -317 21 -408 2 -175 -37 -328 -122 -476
-264 -115 -111 -202 -227 -272 -362 -127 -246 -169 -450 -148 -728 20 -259 72
-461 172 -659 179 -357 484 -559 914 -605 314 -33 587 49 777 236 219 213 278
523 149 789 -70 146 -182 248 -393 360 l-108 58 0 -187 c0 -163 -2 -190 -19
-223 -47 -92 -189 -180 -305 -189 -189 -16 -407 92 -478 236 -33 65 -32 238 0
326 44 119 156 251 254 299 84 41 162 51 299 38 421 -42 753 -285 1009 -740
97 -174 171 -369 211 -557 20 -93 22 -138 26 -616 l5 -517 319 -192 c307 -185
320 -192 359 -185 52 9 87 38 100 83 7 25 10 748 10 2198 l0 2162 138 4 c146
4 168 10 198 55 17 25 19 48 19 233 0 228 -3 241 -68 280 -31 20 -68 20 -2095
20 l-2064 0 -33 -33z"/>
<path d="M4290 11099 c0 -3 -13 -70 -29 -149 -166 -823 -79 -1671 250 -2442
198 -466 494 -901 869 -1278 330 -332 667 -575 1065 -769 157 -77 364 -166
370 -159 2 2 -60 31 -138 66 -701 307 -1366 881 -1800 1554 -348 539 -557
1127 -634 1778 -14 125 -18 233 -18 565 l0 410 38 209 c21 115 35 211 32 214
-3 3 -5 3 -5 1z"/>
</g>
</svg>
